<?xml version="1.0" encoding="UTF-8" standalone="no"?>
<!-- Created with Inkscape (http://www.inkscape.org/) -->

<svg
   xmlns:dc="http://purl.org/dc/elements/1.1/"
   xmlns:cc="http://creativecommons.org/ns#"
   xmlns:rdf="http://www.w3.org/1999/02/22-rdf-syntax-ns#"
   xmlns:svg="http://www.w3.org/2000/svg"
   xmlns="http://www.w3.org/2000/svg"
   xmlns:sodipodi="http://sodipodi.sourceforge.net/DTD/sodipodi-0.dtd"
   xmlns:inkscape="http://www.inkscape.org/namespaces/inkscape"
   width="24"
   height="24"
   viewBox="0 0 24.000001 24.000001"
   id="svg2"
   version="1.1"
   inkscape:version="0.91 r13725"
   sodipodi:docname="google-scholar.svg">
  <defs
     id="defs4">
    <clipPath
       clipPathUnits="userSpaceOnUse"
       id="clipPath4168">
      <rect
         style="fill:#f9f9f9;fill-opacity:1;stroke:none;stroke-width:1.824;stroke-miterlimit:4;stroke-dasharray:none;stroke-opacity:1"
         id="rect4170"
         width="144.28075"
         height="143.35883"
         x="293.63208"
         y="405.17313"
         ry="13.828854" />
    </clipPath>
  </defs>
  <sodipodi:namedview
     id="base"
     pagecolor="#ffffff"
     bordercolor="#666666"
     borderopacity="1.0"
     inkscape:pageopacity="0"
     inkscape:pageshadow="2"
     inkscape:zoom="15.867476"
     inkscape:cx="19.389829"
     inkscape:cy="16.785114"
     inkscape:document-units="px"
     inkscape:current-layer="layer1"
     showgrid="false"
     showguides="false"
     inkscape:window-width="1366"
     inkscape:window-height="719"
     inkscape:window-x="0"
     inkscape:window-y="25"
     inkscape:window-maximized="1"
     units="px" />
  <metadata
     id="metadata7">
    <rdf:RDF>
      <cc:Work
         rdf:about="">
        <dc:format>image/svg+xml</dc:format>
        <dc:type
           rdf:resource="http://purl.org/dc/dcmitype/StillImage" />
        <dc:title />
      </cc:Work>
    </rdf:RDF>
  </metadata>
  <g
     inkscape:label="Camada 1"
     inkscape:groupmode="layer"
     id="layer1"
     transform="translate(0,-1028.3622)">
    <g
       id="g4251"
       transform="matrix(0.17091578,0,0,0.1705407,-71.800448,963.12415)"
       style="fill:#dbdbdb;fill-opacity:1">
      <path
         inkscape:connector-curvature="0"
         id="path4172"
         d="m 432.19592,523.26744 c -2.17372,-0.34563 -6.23192,-2.05437 -6.54337,-2.75513 -0.0845,-0.19015 -0.35323,-0.34572 -0.59715,-0.34572 -0.72917,0 -2.40684,-1.94876 -3.51308,-4.08076 l -1.03716,-1.99886 0,-61.46751 c 0,-40.4811 0.15738,-61.56478 0.46096,-61.7524 0.25353,-0.15669 0.46096,-0.59876 0.46096,-0.98239 0,-0.9856 3.96028,-5.05071 5.57006,-5.7175 0.73939,-0.30627 1.34435,-0.73912 1.34435,-0.96189 0,-0.23071 26.4621,-0.40503 61.48559,-0.40503 49.55654,0 61.70973,0.11628 62.64087,0.59937 2.31731,1.20223 5.40265,3.81102 5.96942,5.0474 0.31961,0.6972 0.7379,1.26764 0.92954,1.26764 0.19164,0 0.34843,0.37338 0.34843,0.82973 0,0.45635 0.25929,1.08901 0.5762,1.40591 0.84488,0.84486 0.84488,120.98706 0,121.83196 -0.31691,0.31692 -0.5762,0.9496 -0.5762,1.40595 0,0.45635 -0.20743,0.82973 -0.46096,0.82973 -0.25353,0 -0.46096,0.23473 -0.46096,0.52161 0,0.67909 -3.86987,4.54896 -4.54896,4.54896 -0.28688,0 -0.52161,0.16146 -0.52161,0.3588 0,0.19734 -1.20831,0.71749 -2.68513,1.1559 -2.47235,0.73394 -7.19887,0.80597 -59.64293,0.90885 -31.32679,0.0615 -57.96628,-0.0486 -59.19887,-0.24462 z m 60.93766,-5.16332 c 11.47782,-2.39459 20.70222,-7.72521 25.54601,-14.7626 1.8042,-2.62128 3.69792,-6.49449 3.69792,-7.56333 0,-0.50052 0.20743,-1.03824 0.46096,-1.19493 0.63642,-0.39333 0.58855,-10.93254 -0.057,-12.5395 -1.85169,-4.60967 -3.20852,-6.62239 -7.08793,-10.51417 -2.28176,-2.28903 -4.80233,-4.67622 -5.60126,-5.30485 -0.79893,-0.62864 -2.24504,-1.76527 -3.21358,-2.52586 -0.96854,-0.76058 -2.64848,-2.30158 -3.7332,-3.42443 -1.73872,-1.79983 -1.97187,-2.29103 -1.96919,-4.14865 0.002,-1.23272 0.33652,-2.60536 0.80668,-3.30782 0.44201,-0.6604 3.50834,-3.8756 6.81409,-7.1449 6.10077,-6.03349 7.67584,-8.28638 8.65229,-12.37574 0.65749,-2.75356 0.9132,-10.78463 0.38782,-12.18019 -1.31474,-3.49232 -1.50422,-3.14603 5.81235,-10.62241 3.74147,-3.82319 6.95646,-6.95125 7.14443,-6.95125 0.74536,0 0.2498,2.63786 -0.82267,4.37912 l -1.13565,1.84385 -0.002,19.51968 c -0.002,19.0295 0.0217,19.55347 0.95591,20.86543 1.07743,1.51311 3.11107,2.71473 4.59445,2.71473 0.5439,0 1.59449,-0.43122 2.33465,-0.95826 2.72972,-1.94378 2.71467,-1.81747 2.71467,-22.78123 0,-20.23601 -0.0279,-20.52845 -2.14237,-22.43878 -0.75055,-0.6781 -0.82599,-1.29343 -0.62339,-5.08525 l 0.23048,-4.31381 2.881,-2.888 c 2.75669,-2.76338 3.54548,-4.21309 2.30481,-4.23598 -0.31691,-0.006 -17.1708,-0.002 -37.45307,0.008 l -36.87687,0.0191 -18.34233,18.34242 c -13.86107,13.86114 -18.26929,18.53274 -18.0434,19.12142 0.27,0.7036 1.45413,0.77899 12.2346,0.77899 l 11.93566,0 0,1.92964 c 0,4.68006 2.57808,11.08527 6.21121,15.43165 2.20278,2.63523 7.74025,6.28937 10.9469,7.22379 3.67726,1.07155 8.06284,1.76972 10.16376,1.61802 l 1.87939,-0.13569 0.0349,4.40735 c 0.0328,4.14129 0.12531,4.55289 1.533,6.81825 0.82396,1.32599 1.49812,2.57471 1.49812,2.77494 0,0.20024 -1.71132,0.50069 -3.80293,0.66767 -3.73679,0.29833 -7.52523,0.90313 -10.25638,1.63735 -7.46897,2.00793 -9.92385,2.9935 -14.16791,5.68808 -5.82311,3.69712 -9.53112,8.66281 -11.14613,14.92665 -0.91936,3.56577 -0.9194,5.52003 -1.8e-4,9.08615 2.1093,8.18307 9.2804,14.16062 20.47413,17.06642 3.83014,0.99427 5.41933,1.14121 12.67643,1.17205 5.65274,0.024 9.33436,-0.1811 11.5511,-0.64357 l -1e-5,0 z"
         style="fill:#dbdbdb;fill-opacity:1;stroke:none;stroke-width:1.824;stroke-miterlimit:4;stroke-dasharray:none;stroke-opacity:1" />
      <path
         inkscape:connector-curvature="0"
         id="path4174"
         d="m 484.97809,447.35528 c -1.17475,-0.44752 -2.87323,-1.37605 -3.7744,-2.06341 -1.85414,-1.41421 -4.92227,-5.00189 -4.92227,-5.75577 0,-0.27425 -0.15679,-0.49863 -0.34843,-0.49863 -0.19164,0 -0.6274,-0.67415 -0.96836,-1.49812 -0.34095,-0.82397 -0.91667,-2.16546 -1.27937,-2.9811 -1.13463,-2.55159 -2.47441,-9.82492 -2.47441,-13.433 0,-3.17193 0.24518,-4.48518 1.49142,-7.98859 1.24084,-3.48824 7.26091,-7.28837 11.54603,-7.28837 9.90114,0 18.89616,14.15036 18.22069,28.66354 -0.35475,7.62214 -2.26584,10.21984 -9.72991,13.22564 -1.8314,0.73752 -5.26564,0.56839 -7.76099,-0.38219 z"
         style="fill:#dbdbdb;fill-opacity:1;stroke:none;stroke-width:1.824;stroke-miterlimit:4;stroke-dasharray:none;stroke-opacity:1" />
      <path
         inkscape:connector-curvature="0"
         id="path4176"
         d="m 483.88728,510.22919 c -0.50706,-0.11705 -2.0628,-0.43043 -3.45721,-0.6964 -5.44143,-1.03791 -8.75202,-2.71385 -12.21737,-6.18485 -2.77199,-2.77653 -3.33467,-3.65355 -4.31335,-6.72308 -0.68711,-2.15507 -0.66914,-6.16288 0.0369,-8.23185 1.3298,-3.89673 4.82593,-7.56922 9.11844,-9.57838 4.28631,-2.00626 7.46061,-2.74799 14.63658,-3.42009 6.34132,-0.59393 7.71033,-0.39703 9.63068,1.38509 0.47031,0.43645 1.5916,1.3019 2.49177,1.92322 5.31644,3.66952 8.90631,7.50225 10.46356,11.17141 0.31691,0.7467 0.5762,3.00613 0.5762,5.02095 0,2.94757 -0.22446,4.13776 -1.14881,6.09169 -1.9499,4.12174 -5.61538,6.92181 -11.04677,8.43864 -2.28684,0.63865 -12.96792,1.21979 -14.77063,0.80365 z"
         style="fill:#dbdbdb;fill-opacity:1;stroke:none;stroke-width:1.824;stroke-miterlimit:4;stroke-dasharray:none;stroke-opacity:1" />
    </g>
  </g>
</svg>
