<?xml version="1.0" encoding="UTF-8" standalone="no"?>
<svg
   xmlns:dc="http://purl.org/dc/elements/1.1/"
   xmlns:cc="http://creativecommons.org/ns#"
   xmlns:rdf="http://www.w3.org/1999/02/22-rdf-syntax-ns#"
   xmlns:svg="http://www.w3.org/2000/svg"
   xmlns="http://www.w3.org/2000/svg"
   xmlns:sodipodi="http://sodipodi.sourceforge.net/DTD/sodipodi-0.dtd"
   xmlns:inkscape="http://www.inkscape.org/namespaces/inkscape"
   fill="#000000"
   height="24"
   viewBox="0 0 24 24"
   width="24"
   version="1.1"
   id="svg6"
   sodipodi:docname="tags.svg"
   inkscape:version="0.92.5 (2060ec1f9f, 2020-04-08)">
  <metadata
     id="metadata12">
    <rdf:RDF>
      <cc:Work
         rdf:about="">
        <dc:format>image/svg+xml</dc:format>
        <dc:type
           rdf:resource="http://purl.org/dc/dcmitype/StillImage" />
      </cc:Work>
    </rdf:RDF>
  </metadata>
  <defs
     id="defs10" />
  <sodipodi:namedview
     pagecolor="#ffffff"
     bordercolor="#666666"
     borderopacity="1"
     objecttolerance="10"
     gridtolerance="10"
     guidetolerance="10"
     inkscape:pageopacity="0"
     inkscape:pageshadow="2"
     inkscape:window-width="1920"
     inkscape:window-height="1056"
     id="namedview8"
     showgrid="false"
     inkscape:zoom="13.906433"
     inkscape:cx="34.536697"
     inkscape:cy="21.104518"
     inkscape:window-x="0"
     inkscape:window-y="0"
     inkscape:window-maximized="1"
     inkscape:current-layer="svg6" />
  <g
     transform="matrix(0.04705882,0,0,0.04705882,0.0447861,0.02712509)"
     id="g7" />
  <g
     transform="matrix(0.04705882,0,0,0.04705882,0.0447861,0.02712509)"
     id="g9" />
  <g
     transform="matrix(0.04705882,0,0,0.04705882,0.0447861,0.02712509)"
     id="g11" />
  <g
     transform="matrix(0.04705882,0,0,0.04705882,0.0447861,0.02712509)"
     id="g13" />
  <g
     transform="matrix(0.04705882,0,0,0.04705882,0.0447861,0.02712509)"
     id="g15" />
  <g
     transform="matrix(0.04705882,0,0,0.04705882,0.0447861,0.02712509)"
     id="g17" />
  <g
     transform="matrix(0.04705882,0,0,0.04705882,0.0447861,0.02712509)"
     id="g19" />
  <g
     transform="matrix(0.04705882,0,0,0.04705882,0.0447861,0.02712509)"
     id="g21" />
  <g
     transform="matrix(0.04705882,0,0,0.04705882,0.0447861,0.02712509)"
     id="g23" />
  <g
     transform="matrix(0.04705882,0,0,0.04705882,0.0447861,0.02712509)"
     id="g25" />
  <g
     transform="matrix(0.04705882,0,0,0.04705882,0.0447861,0.02712509)"
     id="g27" />
  <g
     transform="matrix(0.04705882,0,0,0.04705882,0.0447861,0.02712509)"
     id="g29" />
  <g
     transform="matrix(0.04705882,0,0,0.04705882,0.0447861,0.02712509)"
     id="g31" />
  <g
     transform="matrix(0.04705882,0,0,0.04705882,0.0447861,0.02712509)"
     id="g33" />
  <g
     transform="matrix(0.04705882,0,0,0.04705882,0.0447861,0.02712509)"
     id="g35" />
  <g
     id="g102">
    <g
       id="post-twitter"
       transform="matrix(0.04705882,0,0,0.04705882,0.0447861,0.02712509)">
      <path
         d="M 459,0 H 51 C 22.95,0 0,22.95 0,51 v 408 c 0,28.05 22.95,51 51,51 h 408 c 28.05,0 51,-22.95 51,-51 V 51 C 510,22.95 487.05,0 459,0 Z m -58.65,186.15 c -2.55,117.3 -76.5,198.9 -188.7,204 -45.9,2.55 -79.05,-12.75 -109.65,-30.6 33.15,5.101 76.5,-7.649 99.45,-28.05 -33.15,-2.55 -53.55,-20.4 -63.75,-48.45 10.2,2.55 20.4,0 28.05,0 -30.6,-10.2 -51,-28.05 -53.55,-68.85 7.65,5.1 17.85,7.65 28.05,7.65 -22.95,-12.75 -38.25,-61.2 -20.4,-91.8 33.15,35.7 73.95,66.3 140.25,71.4 -17.85,-71.4 79.051,-109.65 117.301,-61.2 17.85,-2.55 30.6,-10.2 43.35,-15.3 -5.1,17.85 -15.3,28.05 -28.05,38.25 12.75,-2.55 25.5,-5.1 35.7,-10.2 -2.551,12.75 -15.301,22.95 -28.051,33.15 z"
         id="path2"
         inkscape:connector-curvature="0" />
    </g>
    <rect
       y="3.8206499"
       x="2.8851969"
       height="16.32338"
       width="18.336836"
       id="rect46"
       style="fill:#000000;fill-opacity:1;stroke-width:0.99999994" />
  </g>
  <text
     xml:space="preserve"
     style="font-style:normal;font-variant:normal;font-weight:bold;font-stretch:normal;font-size:51.18566132px;line-height:1.25;font-family:sans-serif;-inkscape-font-specification:'sans-serif Bold';letter-spacing:0px;word-spacing:0px;fill:#333333;fill-opacity:1;stroke:none;stroke-width:1.27964139;"
     x="3.196348"
     y="16.356384"
     id="text25"
     transform="scale(0.9687829,1.032223)"><tspan
       sodipodi:role="line"
       id="tspan23"
       x="3.196348"
       y="16.356384"
       style="font-style:normal;font-variant:normal;font-weight:bold;font-stretch:normal;font-size:11.94332027px;font-family:sans-serif;-inkscape-font-specification:'sans-serif Bold';fill:#333333;stroke-width:1.27964139;">CV</tspan></text>
  <path
     style="fill:#e6e6e6;fill-opacity:1;stroke-width:0.02542373"
     d="M 2.1288719,23.994034 C 1.6201181,23.928542 1.1256582,23.675935 0.74998796,23.2896 0.43135735,22.961923 0.24939599,22.642679 0.1239527,22.191247 L 0.05683799,21.949722 0.04925204,12.275993 C 0.04418987,5.8206267 0.05034592,2.4954521 0.06775584,2.2812094 0.15212271,1.2430089 0.79288128,0.44305098 1.7908231,0.13003835 L 2.0144651,0.05989121 H 12.044126 22.073787 l 0.223642,0.07014714 c 0.689816,0.21636641 1.204284,0.65895252 1.503478,1.29341135 0.135921,0.2882283 0.18475,0.4700176 0.218895,0.8149383 0.0173,0.1747169 0.02356,3.506324 0.01878,9.986757 l -0.0072,9.724577 -0.06691,0.241817 c -0.127392,0.460385 -0.320669,0.797884 -0.639939,1.117459 -0.383629,0.383995 -0.862253,0.619578 -1.394311,0.686293 -0.258078,0.03236 -19.5497521,0.03114 -19.8013801,-0.0013 z m 6.9102282,-6.98837 c 0.5596325,-0.08234 1.0864769,-0.246061 1.5762319,-0.489842 l 0.221167,-0.110088 0.0067,-0.933515 c 0.0037,-0.513433 0.0013,-0.933514 -0.0053,-0.933514 -0.0066,0 -0.106818,0.06371 -0.222771,0.141574 C 9.7434964,15.265605 8.6985194,15.494985 7.7907227,15.300256 6.8208745,15.092216 6.1567381,14.284723 5.980766,13.099612 5.93353,12.781491 5.926976,12.060487 5.968542,11.754806 6.1424309,10.476009 6.8486009,9.6528649 7.9343983,9.4633129 8.2192038,9.4135939 8.8787998,9.4291259 9.1712543,9.4924389 9.6549867,9.5971616 10.163957,9.8156643 10.61405,10.111835 l 0.23517,0.154747 V 9.3246031 8.3826247 L 10.588618,8.2602285 C 9.8610577,7.9185061 9.2420318,7.7663357 8.4466685,7.7336896 7.3691178,7.6894607 6.343099,7.9382662 5.5931127,8.4256653 4.5120999,9.128191 3.8690104,10.230831 3.7033647,11.665823 c -0.043048,0.372928 -0.035786,1.180038 0.014068,1.56356 0.1508956,1.160815 0.6024864,2.063689 1.3838438,2.766744 0.6145612,0.552973 1.4827851,0.924537 2.4065074,1.029885 0.3866957,0.0441 1.1633998,0.03378 1.5313162,-0.02035 z m 9.8856049,-4.589841 c 0.856396,-2.4610165 1.557763,-4.4889982 1.558592,-4.5066255 0.0012,-0.025409 -0.225571,-0.030677 -1.09443,-0.025424 l -1.095936,0.00663 -1.108896,3.2972855 c -0.609893,1.813508 -1.113869,3.292313 -1.119947,3.286236 -0.0061,-0.0061 -0.509772,-1.489857 -1.11932,-3.297286 l -1.108269,-3.2862355 -1.078958,-0.00664 c -0.593426,-0.00365 -1.087177,0.00207 -1.097224,0.012712 -0.01902,0.02015 3.06479,8.9188625 3.110282,8.9750875 0.02033,0.02513 0.302313,0.0306 1.311461,0.02542 l 1.285561,-0.0066 z"
     id="path115"
     inkscape:connector-curvature="0" />
</svg>
