<?xml version="1.0" encoding="UTF-8" standalone="no"?>
<svg
   xmlns:dc="http://purl.org/dc/elements/1.1/"
   xmlns:cc="http://creativecommons.org/ns#"
   xmlns:rdf="http://www.w3.org/1999/02/22-rdf-syntax-ns#"
   xmlns:svg="http://www.w3.org/2000/svg"
   xmlns="http://www.w3.org/2000/svg"
   xmlns:sodipodi="http://sodipodi.sourceforge.net/DTD/sodipodi-0.dtd"
   xmlns:inkscape="http://www.inkscape.org/namespaces/inkscape"
   fill="#000000"
   height="24"
   viewBox="0 0 24 24"
   width="24"
   version="1.1"
   id="svg6"
   sodipodi:docname="tags.svg"
   inkscape:version="0.92.5 (2060ec1f9f, 2020-04-08)">
  <metadata
     id="metadata12">
    <rdf:RDF>
      <cc:Work
         rdf:about="">
        <dc:format>image/svg+xml</dc:format>
        <dc:type
           rdf:resource="http://purl.org/dc/dcmitype/StillImage" />
      </cc:Work>
    </rdf:RDF>
  </metadata>
  <defs
     id="defs10" />
  <sodipodi:namedview
     pagecolor="#ffffff"
     bordercolor="#666666"
     borderopacity="1"
     objecttolerance="10"
     gridtolerance="10"
     guidetolerance="10"
     inkscape:pageopacity="0"
     inkscape:pageshadow="2"
     inkscape:window-width="1920"
     inkscape:window-height="1056"
     id="namedview8"
     showgrid="false"
     inkscape:zoom="27.812867"
     inkscape:cx="26.148313"
     inkscape:cy="12.2933"
     inkscape:window-x="0"
     inkscape:window-y="0"
     inkscape:window-maximized="1"
     inkscape:current-layer="svg6" />
  <g
     transform="matrix(0.04705882,0,0,0.04705882,0.0447861,0.02712509)"
     id="post-twitter">
    <path
       inkscape:connector-curvature="0"
       id="path2"
       d="M 459,0 H 51 C 22.95,0 0,22.95 0,51 v 408 c 0,28.05 22.95,51 51,51 h 408 c 28.05,0 51,-22.95 51,-51 V 51 C 510,22.95 487.05,0 459,0 Z m -58.65,186.15 c -2.55,117.3 -76.5,198.9 -188.7,204 -45.9,2.55 -79.05,-12.75 -109.65,-30.6 33.15,5.101 76.5,-7.649 99.45,-28.05 -33.15,-2.55 -53.55,-20.4 -63.75,-48.45 10.2,2.55 20.4,0 28.05,0 -30.6,-10.2 -51,-28.05 -53.55,-68.85 7.65,5.1 17.85,7.65 28.05,7.65 -22.95,-12.75 -38.25,-61.2 -20.4,-91.8 33.15,35.7 73.95,66.3 140.25,71.4 -17.85,-71.4 79.051,-109.65 117.301,-61.2 17.85,-2.55 30.6,-10.2 43.35,-15.3 -5.1,17.85 -15.3,28.05 -28.05,38.25 12.75,-2.55 25.5,-5.1 35.7,-10.2 -2.551,12.75 -15.301,22.95 -28.051,33.15 z" />
  </g>
  <g
     transform="matrix(0.04705882,0,0,0.04705882,0.0447861,0.02712509)"
     id="g7" />
  <g
     transform="matrix(0.04705882,0,0,0.04705882,0.0447861,0.02712509)"
     id="g9" />
  <g
     transform="matrix(0.04705882,0,0,0.04705882,0.0447861,0.02712509)"
     id="g11" />
  <g
     transform="matrix(0.04705882,0,0,0.04705882,0.0447861,0.02712509)"
     id="g13" />
  <g
     transform="matrix(0.04705882,0,0,0.04705882,0.0447861,0.02712509)"
     id="g15" />
  <g
     transform="matrix(0.04705882,0,0,0.04705882,0.0447861,0.02712509)"
     id="g17" />
  <g
     transform="matrix(0.04705882,0,0,0.04705882,0.0447861,0.02712509)"
     id="g19" />
  <g
     transform="matrix(0.04705882,0,0,0.04705882,0.0447861,0.02712509)"
     id="g21" />
  <g
     transform="matrix(0.04705882,0,0,0.04705882,0.0447861,0.02712509)"
     id="g23" />
  <g
     transform="matrix(0.04705882,0,0,0.04705882,0.0447861,0.02712509)"
     id="g25" />
  <g
     transform="matrix(0.04705882,0,0,0.04705882,0.0447861,0.02712509)"
     id="g27" />
  <g
     transform="matrix(0.04705882,0,0,0.04705882,0.0447861,0.02712509)"
     id="g29" />
  <g
     transform="matrix(0.04705882,0,0,0.04705882,0.0447861,0.02712509)"
     id="g31" />
  <g
     transform="matrix(0.04705882,0,0,0.04705882,0.0447861,0.02712509)"
     id="g33" />
  <g
     transform="matrix(0.04705882,0,0,0.04705882,0.0447861,0.02712509)"
     id="g35" />
  <rect
     style="fill:#000000;fill-opacity:1;stroke-width:0.99999994"
     id="rect46"
     width="18.336836"
     height="16.32338"
     x="2.8851969"
     y="3.8206499" />
  <text
     xml:space="preserve"
     style="font-style:normal;font-variant:normal;font-weight:bold;font-stretch:normal;font-size:51.18566132px;line-height:1.25;font-family:sans-serif;-inkscape-font-specification:'sans-serif Bold';letter-spacing:0px;word-spacing:0px;fill:#ffffff;fill-opacity:1;stroke:none;stroke-width:1.27964139"
     x="3.196348"
     y="16.356384"
     id="text25"
     transform="scale(0.9687829,1.032223)"><tspan
       sodipodi:role="line"
       id="tspan23"
       x="3.196348"
       y="16.356384"
       style="font-style:normal;font-variant:normal;font-weight:bold;font-stretch:normal;font-size:11.94332027px;font-family:sans-serif;-inkscape-font-specification:'sans-serif Bold';fill:#ffffff;stroke-width:1.27964139">CV</tspan></text>
</svg>
